<svg xmlns="http://www.w3.org/2000/svg" viewBox="0 0 178.51 114.31"><defs><style>.cls-1{fill:#c1a91a;}.cls-2{fill:#fff;}</style></defs><title>trust8</title><g id="Layer_2" data-name="Layer 2"><g id="Layer_1-2" data-name="Layer 1"><path class="cls-1" d="M23.73,15.22A54.3,54.3,0,0,1,73.47,9.34,54.28,54.28,0,0,0,21.85,68.63a54.32,54.32,0,0,1,1.88-53.41Z"/><path class="cls-2" d="M.1,63.31A54.3,54.3,0,0,1,23.73,15.22a54.24,54.24,0,0,0,72.19,76h0c.91-.49,1.8-1,2.66-1.55.64-.4,1.28-.81,1.9-1.24q-.48.79-1,1.55c-.49.75-1,1.49-1.53,2.21a54.24,54.24,0,0,1-82.79,5.51h0A54.2,54.2,0,0,1,6.88,86.49,54.61,54.61,0,0,1,.1,63.31Z"/><polygon class="cls-1" points="81.52 10.72 65.86 16.4 68.77 0 81.52 10.72"/><path class="cls-2" d="M25.8,30.59a7.14,7.14,0,0,0,7.14,7.14H50.55V80.09a7.14,7.14,0,1,0,14.28,0V30.59a7.14,7.14,0,0,0-7.14-7.14H32.94A7.14,7.14,0,0,0,25.8,30.59Z"/><path class="cls-1" d="M57.69,23.45a7.14,7.14,0,0,1,7.14,7.14v7.14H82.44a7.14,7.14,0,0,0,0-14.28Z"/><path class="cls-1" d="M73.54,62.93c0-4-.07-7.39-.28-10.53h5.37L78.83,59h.28c1.53-4.53,5.23-7.39,9.34-7.39a6.64,6.64,0,0,1,1.74.21v5.79a9.22,9.22,0,0,0-2.09-.21c-4.32,0-7.39,3.28-8.23,7.88a17.26,17.26,0,0,0-.28,2.86v18H73.54Z"/><path class="cls-1" d="M124.56,76.94c0,3.49.07,6.55.28,9.2H119.4l-.35-5.51h-.14a12.69,12.69,0,0,1-11.15,6.27c-5.3,0-11.64-2.93-11.64-14.78V52.4h6.13V71.09c0,6.41,2,10.74,7.53,10.74a8.87,8.87,0,0,0,8.09-5.58,9,9,0,0,0,.56-3.14V52.4h6.13Z"/><path class="cls-1" d="M133.9,79.87A16.08,16.08,0,0,0,142,82.31c4.46,0,6.55-2.23,6.55-5s-1.74-4.53-6.27-6.2c-6.06-2.16-8.92-5.51-8.92-9.55,0-5.44,4.39-9.9,11.64-9.9a16.84,16.84,0,0,1,8.3,2.09l-1.53,4.46a13.13,13.13,0,0,0-6.9-2c-3.63,0-5.65,2.09-5.65,4.6,0,2.79,2,4,6.41,5.72,5.86,2.23,8.85,5.16,8.85,10.18,0,5.93-4.6,10.11-12.62,10.11a19.24,19.24,0,0,1-9.48-2.3Z"/><path class="cls-1" d="M169.73,42.71V52.4h8.78v4.67h-8.78V75.27c0,4.18,1.19,6.55,4.6,6.55a13.66,13.66,0,0,0,3.56-.42l.28,4.6a15,15,0,0,1-5.44.84,8.5,8.5,0,0,1-6.62-2.58c-1.74-1.81-2.37-4.81-2.37-8.78V57.07h-5.23V52.4h5.23V44.32Z"/></g></g></svg>